<?xml version="1.0" encoding="utf-8"?>
<!-- Generator: Adobe Illustrator 19.0.0, SVG Export Plug-In . SVG Version: 6.00 Build 0)  -->
<svg version="1.1" id="Слой_1" xmlns="http://www.w3.org/2000/svg" xmlns:xlink="http://www.w3.org/1999/xlink" x="0px" y="0px"
	 viewBox="831 -281.1 1691.9 592.1" style="enable-background:new 831 -281.1 1691.9 592.1;" xml:space="preserve">
<style type="text/css">
	.st0{display:none;fill:#FFFFFF;}
	.st1{fill:none;stroke:#FBCF00;stroke-width:10;stroke-miterlimit:10;}
	.st2{fill:none;stroke:#363636;stroke-width:20;stroke-miterlimit:10;}
	.st3{fill:#303030;}
	.st4{font-family:'Furore';}
	.st5{font-size:250px;}
</style>
<g id="Слой_1_1_">
	<circle class="st0" cx="1127.2" cy="13.2" r="103.3"/>
	<g>
		<line class="st1" x1="1062.8" y1="71.5" x2="1126.2" y2="61.1"/>
		<path class="st1" d="M1126.7-113.2"/>
		<line class="st1" x1="1190.1" y1="71.5" x2="1126.7" y2="61.1"/>
		<path class="st1" d="M1126.2-113.2"/>
		<path class="st1" d="M1126.7-113.2c48.1,21.2,105.6,138.8,111.5,192.1c-30.5,32.7-198.9,31.5-223,0
			C1021.1,25.6,1078.6-92,1126.7-113.2"/>
		<path class="st1" d="M1231.2,70.6L1126.2-54L1019.4,74.7c-1.2,1.5,0,3.7,1.9,3.4l41.5-6.6l62.8,31.5l64.5-31.5l37.4,5.8
			C1231.2,77.8,1233.7,73.5,1231.2,70.6z"/>
		<polyline class="st1" points="1085.6,-75.3 1127.2,-55.8 1056.3,-29.5 1042.8,45.7 1127.2,61.1 		"/>
		<polyline class="st1" points="1167.8,-75.3 1126.2,-55.8 1197.1,-29.5 1210.6,45.7 1126.2,61.1 		"/>
		<path class="st1" d="M1062.8,71.5"/>
		<line class="st1" x1="1210.6" y1="45.7" x2="1229.4" y2="41.6"/>
		<line class="st1" x1="1042.8" y1="45.7" x2="1024" y2="41.1"/>
		<path class="st1" d="M1068.1,97.8"/>
		<path class="st1" d="M1062.8,71.5"/>
		<path class="st1" d="M1184.2,97.8"/>
		<path class="st1" d="M1189.5,71.5"/>
	</g>
	<circle class="st2" cx="1127" cy="12.2" r="131.2"/>
	<path id="my_vector_mask_shape" class="st3" d="M1097-278c2.9,3.1,3.6,7.8,1,11l-7,10L1097-278z M1103-262l4,9l-78,112h-1v-3
		C1044.5-190.4,1076.7-224.4,1103-262z M1090-257l1,2L1090-257z M1108-245c0.7,4,1.3,8,2,12L942,5V3l-3-7L1108-245z M1198-218
		c1.6,9.3-49.5,82.6-60,83l-2-1v-1C1160-159.9,1170-199.4,1198-218z M1179-211c-0.4,7.8-42.5,67.1-51,75h-9l1-3
		C1142.9-160.8,1150.6-194.3,1179-211z M980-209l8,1l-4,7l-1-2L980-209z M1056-208l-11,19h-1C1045.8-198.1,1051.3-202,1056-208z
		 M1099-208l1,2L1099-208z M1281-208c0,7.5-19.7,36.5-27,42c-5.5,4.1-12.1,4.4-16,10c-3.8,5.4,0,9.9-2,16l-24,33l-6-3l2-4l54-79
		C1268.1-199.6,1275.9-199.7,1281-208z M1098-206c4.6,11.7-11.6,30.1-17,38c-21.4,31.4-41.5,65.8-71,89L1098-206z M993-205
		c5.4,1.1,7.4,3.5,5,7l-14,20C986.1-191.1,989.1-196,993-205z M1158-205c-1.4,13.8-37.2,54.8-47,70l-11,1l2-2
		C1109.7-155.5,1139.6-195.7,1158-205z M1134-197h2c-5.6,14.2-40.8,65.6-56,68l2-3C1092-156.6,1114.5-180.8,1134-197z M1003-194l5,8
		l-35,49C978.6-163.1,992-174.5,1003-194z M1248-191l5,1l-3,3l-50,72l-6-3v-3l49-69L1248-191z M1231-188h3l-1,3l-44,63l-8-2l2-4
		l39-58L1231-188z M1209-182h3l-37,54l-8-1v-1C1177-148.3,1191.5-170.8,1209-182z M1009-178c2.7,2.4,3,4.8,3,10l-45,66h-1
		C968.8-135.6,995-154,1009-178z M1096-178c11.4,11.7-27.9,54.5-42,61L1096-178z M1176-169c3.1,3.2,2.6,4.3,6,5l-21,32l-9-2l3-3
		L1176-169z M1183-167c-0.2,1.5,0.4,1-1,3L1183-167z M1010-154c4.8,16.6-12.3,30.5-19,40l-62,91l-2-1l-3-7c6.4-10.6,31.4-51.3,42-48
		C962.3-98.7,1000.5-137.7,1010-154z M1250-150l9,1l-36,51l-6-5L1250-150z M1266-148l9,1l-2,2l-40,57l-5-4v-1
		C1240.7-111.3,1253.3-129.7,1266-148z M1281-146l12,2v1l-14,2L1281-146z M933-139c3.1,11.2-12,30.3-19,36
		C916.8-117.3,926-128.4,933-139z M1009-129c7.3,15.3-7.9,26-15,36L936-9l-2-1C928-31.2,998.9-102.2,1009-129z M1270-129l9,1l-36,52
		l-3-2c-1-3.3-1.7-3.1-1-6L1270-129z M1286-128l9,2l-44,62l-2-1l-3-5L1286-128z M1302-126h9l-2,4l-50,73l-2-1c-0.7-3-1.3-6-2-9
		L1302-126z M1319-125l9,1l-64,91l-3-9L1319-125z M1335-123l9,1l-35,49h-9l3-3L1335-123z M1353-123h9l-36,50h-8v-1l2-2L1353-123z
		 M1370-123l8,2l-2,2c-2.5,6.3-32.6,39.9-38,42L1370-123z M1384-119l7,4l-8,12h-9v-1L1384-119z M932-118c2.7,3.6,4.2,9.1,2,12
		l-22,33h-2C909.6-96.6,924.6-102.2,932-118z M1397-113l8,3l-4,6l-10,1c0.3-1,0.7-2,1-3L1397-113z M1410-107l3,3h-4
		C1409.3-105,1409.7-106,1410-107z M913-103l1,2L913-103z M937-100c11.8,11.6-15.3,33.9-21,46l-1-2l-3-8L937-100z M946-88l7,4
		l-31,46l-2-1l-2-9L946-88z M1009-79c-0.2,1.5,0.4,1-1,3C1008.3-77,1008.7-78,1009-79z M1006-75c0.3,0.7,0.7,1.3,1,2
		C1006.7-73.7,1006.3-74.3,1006-75z M1004-72c-0.2,1.5,0.4,1-1,3C1003.3-70,1003.7-71,1004-72z M1298-71l7,3l-35,53l-2-1
		c-0.3-3.3-0.7-6.7-1-10L1298-71z M1002-69c-0.2,1.5,0.4,1-1,3C1001.3-67,1001.7-68,1002-69z M1000-66c1.1,16.5-40,77-52,88h-1
		C946.3-5.1,987-43.3,1000-66z M1311-64l8,3l-48,67V-6L1311-64z M1324-58l7,4c-5.3,10.4-11.8,20.3-24,24l1,2l4,1l-42,59
		C1274.3-6.2,1307.8-29.1,1324-58z M1336-51l7,5l-4,6l-11,2l3-4C1332.7-45,1334.3-48,1336-51z M1317-23l7,4l-2,2l-61,89h-1
		C1266.6,34,1297.6,4.7,1317-23z M981-14c4.2,14.7-30.1,61.8-39,70l-7-3L981-14z M1327-13l6,6l-159,226c8.2-33.8,29.5-54.3,47-79
		L1327-13z M1337-2l6,5v1l-178,253c-0.2-26.9,31.3-57.1,44-75L1337-2z M1348,7l6,5l-27,40l-8-3L1348,7z M918,11h3l-1,3l-21,28l-6-2
		l2-4l16-24L918,11z M929,12l8,2c-5.8,10-16.1,31.6-30,30v-1L929,12z M901,13c0,6.5-9.2,15.4-13,22l-6-6
		C887.1,19.5,891.7,18.4,901,13z M979,14c5.7,13.6-20.2,44.7-27,52l-3-2c-1-4.5-2-2.5,0-6L979,14z M872,15l9,4l-3,5l-1-2L872,15z
		 M1359,15l8,4l-26,38l-8-3l2-2L1359,15z M941,18l6,7l-18,25l-8-4L941,18z M1372,22l7,4l-24,33l-8-1l2-2L1372,22z M1384,29l7,4
		l-20,28l-8-1l3-3L1384,29z M980,37c2.5,2.3,2.8,5.2,3,10l-57,81l-9-1l3-3L980,37z M1396,37l7,5l-14,19h-9c0.3-1,0.7-2,1-3L1396,37z
		 M1407,46l6,6l-7,11l-9-3L1407,46z M985,55l3,11l-44,61h-9l2-2L985,55z M1314,56c2.6,3.6,3.9,7.3,2,10l-6,10l-8-3l1-3L1314,56z
		 M1416,58c4.1,3.4,4.9,10.7,6,17h-1l-11-8L1416,58z M941,68l9,1l-40,58h-9v-1L941,68z M928,69h5c-7.4,12.5-34.3,57.7-49,56
		C896,105.5,910,82.9,928,69z M990,72c3,2.2,3.5,4.4,5,8l-33,47h-10l3-3L990,72z M1320,72c1.7,4,3.3,8,5,12l-9-3c0-3.1-1-1.4,1-4
		L1320,72z M831,74l8,5l-2,2l-2,3v-2L831,74z M1298,77c3,2.2,3.5,4.4,5,8l-37,53l-7-4L1298,77z M845,81l8,3l-8,13l-4-3
		c-0.8-4.5-2-3.1,0-6L845,81z M905,82l-26,41l-8-2l2-4C879.3,101.2,890.8,90.5,905,82z M859,86l8,1l-2,4l-11,17l-5-4v-1L859,86z
		 M997,87l5,4c-1.5,10.8-20.9,40.6-32,35l2-2L997,87z M875,88h10l-20,29l-2-2l-4-3L875,88z M1305,93c8.4,16.2-20.3,42-28,55l-2-1
		c-1.8-4.6-2.7-3.6-3-8L1305,93z M1006,99l5,7l-17,24l-8-2L1006,99z M1015,111l6,6l-2,2l-11,15l-7-2l1-3L1015,111z M1308,113l3,10
		l-25,37l-2-1l-3-5L1308,113z M1025,121l6,6c-6.2,11.5-29.9,49.3-40,55l-8,1v-1l2-2L1025,121z M1223,123c-1.6,15.6-46.6,69.3-62,78
		l41-61L1223,123z M1035,131l7,5c-7.6,14.3-22.1,42.3-41,45l2-2C1013.7,163,1024.3,147,1035,131z M1311,134
		c7.6,14.5-11.4,29.5-17,39l-2-1c-1.6-4.9-3-4.4-1-8L1311,134z M1047,139l7,5l-2,2c-5.3,12.7-15.1,26.4-30,30L1047,139z M1255,140
		c5.7,12.7-6.4,25.1-13,32l-4-3l-1-3L1255,140z M1060,146l7,4l-11,17l-11,1l1-3L1060,146z M1188,147h2l-65,93h-1v-6
		C1132.4,206,1166.3,163.1,1188,147z M994,153c-0.5,9-13.6,19.5-18,29l-9-2C973.9,167.7,985.4,163.1,994,153z M1072,153l9,2l-2,2
		c-5.4,12.7-59.8,92.5-69,96l-8,1l2-2c6.1-15.5,48.8-77,63-82c-2.9-3.6-3.8-1.1-2-5L1072,153z M1313,155l2,1
		c0.3,15.9-6.8,20.7-13,30l-2-1c-1.6-4.9-3-4.4-1-8L1313,155z M1164,156h2l-34,51h-1c1.4-8.6,5.8-15,10-21c-2.9-3.5-3.6-2.3,0-6
		C1145.6,168.2,1153.3,162.1,1164,156z M1087,157l8,3c-10.1,16.6-55,88.5-73,90l1-3L1087,157z M1102,160l9,2l-2,2
		c-6.7,16.6-47.7,75.3-65,79L1102,160z M1136,161l9,1l-2,2l-14,21l-10,1L1136,161z M1118,162h10c-13.9,22.4-31.2,45.5-52,61
		L1118,162z M1256,162c4.2,9.4-3.2,21.8-8,26l-3-9L1256,162z M961,171h4l-2,3l-2,4l-3-1l-5-4L961,171z M1232,172
		c4.4,11.7-5.4,23.2-10,30l-54,75c-0.7-3.3-1.3-6.7-2-10L1232,172z M1316,176l3,10l-8,13l-5-4l-1-3L1316,176z M1039,188
		c-0.8,8-37.6,59.4-46,67l-8-2C1000.3,228.9,1022.5,211.6,1039,188z M1322,192l10,9h-16v-1L1322,192z M1227,204
		c4.6,20.6-40.2,69.7-50,87l-3-2c-1.5-4.2-1.7-3-2-7C1190.3,256,1208.7,230,1227,204z M983,241h3l-8,11l-7-3l5-7L983,241z M959,244
		h7v1l-2,2L959,244z M1207,257c5.8,14.8-12.2,36-20,42l-6-3l1-3L1207,257z M1206,283c2.1,4.1,1.4,10.9,0,13l-6,8l-6-3l3-3L1206,283z
		 M1209,302l10,9l-12-5L1209,302z"/>
</g>
<g id="Слой_2">
	<text id="XMLID_79_" transform="matrix(1 0 0 1 1504.14 98.9787)" class="st3 st4 st5">ГК РЭГ        </text>
</g>
</svg>
