<?xml version="1.0" encoding="utf-8"?>
<!-- Generator: Adobe Illustrator 19.0.0, SVG Export Plug-In . SVG Version: 6.00 Build 0)  -->
<svg version="1.1" id="Слой_1" xmlns="http://www.w3.org/2000/svg" xmlns:xlink="http://www.w3.org/1999/xlink" x="0px" y="0px"
	 viewBox="0 0 30 30" style="enable-background:new 0 0 30 30;" xml:space="preserve">
<style type="text/css">
	.st0{fill-rule:evenodd;clip-rule:evenodd;fill:#A6A6A6;}
</style>
<g id="XMLID_3_">
	<path id="XMLID_4_" class="st0" d="M30,21L30,21c0,0.5,0,0.9-0.2,1.3c-0.1,0.3-0.3,0.6-0.7,1c-0.5,0.6-1.4,0.9-2.1,0.9
		c-0.9,0-1.7-0.3-2.3-0.9L15,13.4l-9.7,9.9c-0.6,0.6-1.4,0.9-2.2,0.9c-0.8,0-1.7-0.3-2.2-0.9C0.2,22.6,0,21.8,0,21
		c0-0.7,0.2-1.5,0.9-2.1L12.8,7c0.6-0.7,1.4-1.1,2.2-1.1c0.8,0,1.6,0.4,2.2,1.1l12,11.9c0.4,0.2,0.6,0.6,0.7,1.1
		C30,20.3,30,20.7,30,21L30,21z"/>
</g>
</svg>
